<svg version="1.1" id="Layer_1" xmlns="http://www.w3.org/2000/svg" x="0" y="0" width="200" height="200" xml:space="preserve"><style>.st0{fill:#f16262}.st2{fill:#2f446a}</style><path class="st0" d="M94.5 54.6L82.3 66.8c-4.2 4.1-4.2 10.9 0 15l24.4 24.4c4.2 4.2 10.9 4.2 15 0l24.4-24.4c4.2-4.2 4.2-10.9 0-15l-24.4-24.4c-4.2-4.2-10.9-4.1-15 0L94.5 54.6z"/><path d="M52 74.3l39.4-39.4 39.4 39.4-39.4 39.4L52 74.3z" fill="none" stroke="#2f446a" stroke-width="11.15" stroke-linecap="round" stroke-linejoin="round"/><g><path class="st2" d="M32.8 144.1L32 148l-.7.3c-.8-.5-1.5-1-2.4-1.3-.8-.3-1.6-.5-2.2-.5-.9 0-1.6.2-2.1.7-.5.5-.8 1-.8 1.7 0 .6.3 1.2.9 1.6s1.5 1 2.8 1.6c1.2.6 2.2 1.1 3 1.6s1.4 1.1 2 1.9c.5.8.8 1.7.8 2.9s-.3 2.3-1 3.4c-.7 1-1.6 1.8-2.8 2.4-1.2.6-2.6.9-4.2.9-2.1 0-4.2-.5-6.4-1.4l.6-4.2.5-.3c.9.8 1.9 1.4 2.9 1.8 1.1.4 2 .6 2.8.6 1 0 1.7-.2 2.3-.7.5-.5.8-1.1.8-1.7 0-.7-.3-1.3-.9-1.7-.6-.4-1.5-1-2.9-1.6-1.2-.5-2.2-1-2.9-1.5-.8-.5-1.4-1.1-1.9-1.9-.5-.8-.8-1.7-.8-2.8 0-1.2.3-2.4 1-3.4s1.6-1.8 2.8-2.4c1.2-.6 2.6-.9 4.1-.9 1.8-.1 3.6.2 5.5 1zM46.8 164.8h-5.4l-6.6-21.5h4.6l.5 2.8 4.1 14.5h.3l4.7-14.3.6-3.1H54l-7.2 21.6zM71.8 144.3l-1 4.1-.4.1c-1.1-.6-2.1-1.1-2.9-1.4-.9-.3-1.8-.4-2.8-.4-2 0-3.4.6-4.3 1.8-.9 1.2-1.4 3.1-1.4 5.8 0 1.8.2 3.2.6 4.2.4 1 1 1.8 1.8 2.3s1.9.7 3.3.7c.5 0 .9 0 1.3-.1s.9-.2 1.5-.4l.1-1.8-.1-3.4 4.2-.3-.1 3 .1 5.3c-2.7.9-5.1 1.3-7.4 1.3-3.3 0-5.9-.9-7.5-2.7-1.7-1.8-2.5-4.4-2.5-7.9 0-3.7 1-6.6 2.9-8.5 2-2 4.7-3 8.3-3 2.3 0 4.4.4 6.3 1.3z"/><path class="st0" d="M86.3 144.3l-.3 1.6-.3.1c-.6-.4-1.3-.7-2-.9-.7-.2-1.4-.3-2-.3-.9 0-1.8.2-2.5.6-.7.4-1.2.9-1.6 1.5-.4.6-.6 1.3-.6 1.9 0 .7.2 1.3.6 1.8.4.5.9 1 1.5 1.3.6.4 1.4.8 2.4 1.3 1.2.6 2.1 1.1 2.9 1.6.7.5 1.3 1 1.9 1.8.5.7.8 1.6.8 2.6s-.3 2-.9 2.9c-.6.9-1.4 1.6-2.4 2.1s-2.2.8-3.5.8c-.9 0-1.9-.1-2.8-.4-1-.3-1.8-.6-2.6-1.1l.2-1.8.2-.1c.7.6 1.6 1.1 2.5 1.5.9.3 1.8.5 2.6.5 1 0 1.8-.2 2.6-.6.7-.4 1.3-.9 1.7-1.6.4-.6.6-1.3.6-2s-.2-1.4-.6-1.9c-.4-.5-.9-1-1.5-1.4-.6-.4-1.4-.8-2.5-1.3-1.2-.6-2.1-1.1-2.8-1.5-.7-.4-1.3-1-1.8-1.7s-.7-1.6-.7-2.6.3-2 .8-2.8c.5-.9 1.3-1.5 2.3-2 1-.5 2.1-.8 3.4-.8 1.5-.1 3 .2 4.4.9zM102.4 145c1.1 1.1 1.6 2.6 1.6 4.5 0 2.3-.7 4.1-2 5.4-1.3 1.3-3.2 2-5.6 2h-2.7v1.3l.1 6.6H92l.1-6.5-.1-14.9h5.7c2 0 3.6.5 4.7 1.6zm-1.4 8.6c.8-1 1.2-2.3 1.2-4 0-1.5-.4-2.7-1.2-3.5-.8-.8-2-1.2-3.5-1.3l-3.7.1-.1 10.4 3.7.1c1.6-.2 2.8-.8 3.6-1.8zM122 164.4v.2c-.4.2-.9.3-1.5.4l-.3-.1c-2.2-3.1-4-5.9-5.5-8.5h-4.2v1.8l.1 6.6h-1.7l.1-6.5-.1-14.9h5.7c2 0 3.6.5 4.7 1.5s1.6 2.5 1.6 4.5c0 1.6-.4 2.9-1.2 4.1-.8 1.1-2 2-3.4 2.6 1.6 2.6 3.5 5.4 5.7 8.3zm-11.4-9.5l4.3.1c1.4-.4 2.4-1 3.1-2s1.1-2.1 1.1-3.5c0-1.5-.4-2.6-1.2-3.4-.8-.8-2-1.2-3.5-1.2l-3.7.1-.1 9.9zM128.5 158.2l.1 6.6h-1.7l.1-6.5-.1-14.9h1.8l-.2 14.8zM146.8 143.6l-.2 1.3-3.6-.1h-2.6l-.1 13.3.1 6.6h-1.7l.1-6.5-.1-13.4h-2.6l-3.6.1-.1-.2.2-1.3h14.2v.2zM149.5 162.9c.2.2.3.5.3.8 0 .4-.1.6-.3.9-.2.2-.5.3-.8.3-.4 0-.6-.1-.8-.3-.2-.2-.3-.5-.3-.8 0-.4.1-.6.3-.9.2-.2.5-.3.8-.3.3 0 .6.1.8.3zM167.3 163.4l-.2 1.4h-11.3l.1-6.5-.1-14.9H167l.1.2-.1 1.4-5-.1h-4.4l-.1 8.1H165.3l.1.2-.2 1.4h-7.7v3.7l.1 5.1h4.3l5.3-.1.1.1zM181.2 144.3l-.3 1.6-.3.1c-.6-.4-1.3-.7-2-.9-.7-.2-1.4-.3-2-.3-.9 0-1.8.2-2.5.6-.7.4-1.2.9-1.6 1.5-.4.6-.6 1.3-.6 1.9 0 .7.2 1.3.6 1.8.4.5.9 1 1.5 1.3s1.4.8 2.4 1.3c1.2.6 2.1 1.1 2.9 1.6s1.3 1 1.9 1.8c.5.7.8 1.6.8 2.6s-.3 2-.9 2.9c-.6.9-1.4 1.6-2.4 2.1s-2.2.8-3.5.8c-.9 0-1.9-.1-2.8-.4-1-.3-1.8-.6-2.6-1.1l.2-1.8.2-.1c.7.6 1.6 1.1 2.5 1.5.9.3 1.8.5 2.6.5 1 0 1.8-.2 2.6-.6.7-.4 1.3-.9 1.7-1.6.4-.6.6-1.3.6-2s-.2-1.4-.6-1.9c-.4-.5-.9-1-1.5-1.4-.6-.4-1.4-.8-2.5-1.3-1.2-.6-2.1-1.1-2.8-1.5-.7-.4-1.3-1-1.8-1.7s-.7-1.6-.7-2.6.3-2 .8-2.8c.5-.9 1.3-1.5 2.3-2 1-.5 2.1-.8 3.4-.8 1.4-.1 2.9.2 4.4.9z"/></g></svg>