<svg xmlns="http://www.w3.org/2000/svg" xml:space="preserve" id="Layer_1" x="0" y="0" version="1.1" viewBox="0 0 200 200"><style>.st2{fill:#fff}</style><ellipse cx="99.4" cy="96.7" fill="#f9cf2a" rx="65.1" ry="52.7" transform="rotate(-54.562 99.426 96.655)"/><path fill="#008b47" d="M44.7 167.4c-4.3-19.6-14-46.4-38.7-45.7 1.6-3.2 15.1.5 19.4 2.2 10.2 4.1 17.6 12.2 20.9 22.8 2.2 5.6 7.9-1.2 8.2-1.5 13.9-12.2 30.8-21 48.8-25 20.9-4.8 43-2 62.7 5.8 8.6 3.6 6.8 3.8 3.7-4.3-5-13.6.2-35.8 9.8-45.5-4.1.3-8.2.3-12.1-.8C154.8 72.9 152 58.8 155 48c-.6-.3-3.2 3.3-4.6 4.3-8.1 7.5-20.8 16.1-33 20.2-25 9.2-52.6 2.7-73.6-12.7-3.4-3-2-.1-1.4 2.6.7 4.6 1.1 9.1.9 13.9-.8 19.2-12.5 34.6-29.2 42.1-1.8.2.4-1.4 1.2-1.6 4.1-2.3 7.6-5.3 11.1-8.1 10.3-11.5 14.8-28.9 12.2-44.9-.9-5.8-4.6-15.2-.5-11.2 16.2 14 37.5 22.6 59.2 19.4 25.1-3.5 47-19.9 61.9-36.3 5-5.6 2.9-3.2 1.8 2.9-1.7 9.2-4.4 20.5 1.4 28.7 12.4 8 29.3.9 31.7 2.3-13.6 9-26 24.4-23.6 43.6.4 5.7 2.2 11.2 4.7 16.4 3.4 6.4 2.6 4.8-2.6 2.4-48.1-24.7-99.3-6.5-127.9 35.4z"/><path d="M52.7 101.1c.3 0 .6 0 .8-.1.3-.1.5-.2.7-.4.2-.2.3-.3.4-.5.1-.2.2-.4.2-.6 0-.3-.1-.6-.3-.9-.2-.3-.4-.5-.7-.7-.3-.2-.6-.4-1-.6-.4-.2-.7-.3-1.1-.5-.4-.2-.7-.4-1.1-.6-.4-.2-.7-.4-1-.7s-.5-.6-.7-.9c-.2-.3-.3-.8-.3-1.2 0-.4.1-.9.3-1.2.2-.4.5-.7.8-1 .3-.3.7-.5 1.2-.6.5-.2 1-.2 1.5-.2.4 0 .7 0 1 .1l.9.3c.3.1.6.4.9.6.3.3.6.6 1 1.1l-.8.7c-.4-.7-.9-1.2-1.4-1.5-.5-.3-1.1-.5-1.7-.5-.3 0-.6 0-.9.1-.3.1-.5.2-.7.3-.2.1-.3.3-.4.5-.1.2-.2.4-.2.6 0 .3.1.6.3.9.2.2.4.5.7.7.3.2.6.4 1 .6.4.2.8.3 1.2.5l1.2.6c.4.2.7.4 1 .7.3.3.5.6.7.9.2.3.3.8.3 1.2 0 .5-.1.9-.3 1.3-.2.4-.4.8-.8 1.1-.4.3-.8.5-1.3.7-.5.2-1.2.3-1.9.3-.3 0-.7 0-1-.1s-.7-.2-1-.3c-.3-.1-.7-.4-1-.6-.3-.3-.7-.6-1-1.1l.9-.8c.3.4.5.7.8 1 .2.3.5.5.8.7.3.2.5.3.8.4.6-.3.9-.3 1.2-.3zM60.2 90.6l3.9 8.4 3.8-8.4h1l-5 11.2h-.8l-5.2-11.2h2.3zM81.2 91.2v.9h-2.1c.2.3.4.7.5 1 .1.4.2.7.2 1.1 0 .6-.1 1.1-.4 1.6-.3.5-.6.9-1.1 1.2s-1 .6-1.6.8c-.6.2-1.3.3-2.1.3-.3 0-.6 0-.9-.1-.3 0-.5-.1-.8-.2-.2.2-.4.4-.5.6-.1.2-.2.5-.2.7 0 .2.1.4.4.5.2.1.6.2 1 .2l4.1.2c.7 0 1.2.1 1.6.2.4.1.8.3 1 .5.3.2.4.5.6.8.1.3.2.6.2 1 0 .6-.2 1.2-.4 1.8-.3.5-.7 1-1.3 1.3-.6.4-1.3.7-2.1.9-.8.2-1.7.3-2.7.3-1.8 0-3.2-.2-4.1-.6-.9-.4-1.4-1-1.4-1.6 0-.3.1-.6.2-.9s.3-.6.6-.8c.2-.3.5-.5.8-.7.3-.2.6-.5.9-.7-.4-.1-.8-.3-1-.5-.3-.2-.4-.5-.4-.8 0-.2.1-.5.2-.7.1-.2.3-.5.5-.7.2-.2.4-.4.7-.6.3-.2.6-.3.9-.4-.8-.3-1.3-.8-1.8-1.3-.4-.6-.6-1.2-.6-2 0-.6.1-1.1.4-1.6.3-.5.6-.9 1-1.3s1-.6 1.5-.9c.6-.2 1.2-.3 1.9-.3.3 0 .6 0 1 .1.3 0 .6.1.9.2s.5.2.7.3c.2.1.4.2.5.3h3.2zm-8.8 10.4c-.3.2-.6.5-.8.9-.2.4-.3.7-.3 1 0 .3.1.5.3.7.2.2.4.4.8.6.3.2.8.3 1.3.4.5.1 1.1.2 1.8.2s1.4-.1 2-.2c.6-.1 1.1-.3 1.5-.5.4-.2.7-.4.9-.6.2-.2.3-.5.3-.7 0-.5-.2-.9-.7-1.1-.5-.2-1.2-.3-2-.3h-1.6c-.5 0-1-.1-1.5-.1s-.9-.1-1.2-.1c-.4-.2-.7-.2-.8-.2zm2.7-4.1c.3 0 .6-.1.9-.2.3-.1.5-.3.8-.6.2-.2.4-.5.5-.9.1-.3.2-.7.2-1.1 0-.5-.1-1-.2-1.5s-.3-.9-.6-1.2c-.3-.3-.6-.6-.9-.8s-.7-.3-1.1-.3c-.4 0-.7.1-1 .2-.3.2-.5.4-.7.6-.2.3-.3.6-.4.9-.1.4-.1.8-.1 1.2 0 .5.1 1 .2 1.4.1.4.3.8.5 1.1.2.3.5.6.8.8.4.3.7.4 1.1.4zM86.9 101.1c.3 0 .6 0 .8-.1.3-.1.5-.2.7-.4.2-.2.3-.3.4-.5.1-.2.2-.4.2-.6 0-.3-.1-.6-.3-.9-.2-.3-.4-.5-.7-.7-.3-.2-.6-.4-1-.6-.4-.2-.7-.3-1.1-.5-.4-.2-.7-.4-1.1-.6-.4-.2-.7-.4-1-.7-.3-.3-.5-.6-.7-.9-.2-.3-.3-.8-.3-1.2 0-.4.1-.9.3-1.2.2-.4.5-.7.8-1 .3-.3.7-.5 1.2-.6.5-.2 1-.2 1.5-.2.4 0 .7 0 1 .1l.9.3c.3.1.6.4.9.6.3.3.6.6 1 1.1l-.8.7c-.4-.7-.9-1.2-1.4-1.5-.5-.3-1.1-.5-1.7-.5-.3 0-.6 0-.9.1-.3.1-.5.2-.7.3-.2.1-.3.3-.4.5-.1.2-.2.4-.2.6 0 .3.1.6.3.9.2.2.4.5.7.7.3.2.6.4 1 .6.4.2.8.3 1.2.5l1.2.6c.4.2.7.4 1 .7.3.3.5.6.7.9.2.3.3.8.3 1.2 0 .5-.1.9-.3 1.3-.2.4-.4.8-.8 1.1-.4.3-.8.5-1.3.7-.5.2-1.2.3-1.9.3-.3 0-.7 0-1-.1s-.7-.2-1-.3c-.3-.1-.7-.4-1-.6-.3-.3-.7-.6-1-1.1l.9-.8c.3.4.5.7.8 1 .2.3.5.5.8.7.3.2.5.3.8.4s.8-.3 1.2-.3zM93.3 90.6h2.2v2.3c.2-.3.5-.6.7-.9.3-.3.6-.6.9-.8.3-.2.7-.4 1.1-.6.4-.2.8-.2 1.3-.2.7 0 1.3.1 1.8.4.5.3 1 .6 1.4 1.1.4.5.7 1 .9 1.7.2.6.3 1.3.3 2 0 .9-.1 1.8-.4 2.5-.3.8-.6 1.4-1.1 2-.5.6-1 1-1.7 1.3-.7.3-1.4.5-2.3.5h-.9c-.3 0-.5-.1-.7-.1-.2-.1-.5-.1-.7-.3-.2-.1-.4-.2-.7-.4v5.3h-2.2V90.6zm2.2 8.1c0 .3.1.6.2.9.1.3.4.5.6.8.3.2.6.4.9.5.4.1.8.2 1.2.2.4 0 .8-.1 1.2-.3.4-.2.7-.5.9-.9.3-.4.5-.8.6-1.4.2-.5.2-1.1.2-1.8 0-.8-.1-1.5-.2-2.1s-.3-1.1-.6-1.5c-.3-.4-.6-.7-.9-.9-.4-.2-.7-.3-1.2-.3-.3 0-.6 0-.9.1-.3.1-.6.2-.8.4-.3.2-.5.4-.7.6-.2.2-.4.4-.6.7v5zM105.9 90.6h2.2v2.1c.2-.3.5-.6.7-.9.2-.3.5-.5.8-.7s.5-.4.8-.5c.3-.1.6-.2.9-.2.2 0 .5 0 .7.1.2.1.4.2.5.3l.4.4c.1.2.1.3.1.5 0 .4-.1.6-.3.8-.2.2-.5.3-.9.3-.2 0-.4 0-.6-.1-.2-.1-.3-.1-.4-.2-.1-.1-.2-.1-.4-.2-.1-.1-.3-.1-.5-.1-.3 0-.6.2-.9.5-.3.3-.6.7-.9 1.2v7.7h-2.2v-11zM115.6 84.9c.2 0 .3 0 .5.1s.3.1.4.2c.1.1.2.2.3.4.1.1.1.3.1.4 0 .1 0 .3-.1.4-.1.1-.2.3-.3.4-.1.1-.2.2-.4.2-.2.1-.3.1-.5.1s-.3 0-.5-.1-.3-.1-.4-.2c-.1-.1-.2-.2-.3-.4-.1-.1-.1-.3-.1-.4 0-.2 0-.3.1-.4.1-.1.2-.3.3-.4.1-.1.2-.2.4-.2.2-.1.3-.1.5-.1zm-1.1 6.1 1.5-.6h.6v11.3h-2.2V91zM125.3 100.2c-.3.5-.7.9-1.2 1.2-.5.3-1.1.4-1.8.4-.4 0-.7-.1-1-.2-.3-.1-.5-.3-.7-.5-.2-.2-.3-.5-.4-.8-.1-.3-.1-.7-.1-1.1v-7.8h-1.9V91c.6 0 1.1-.1 1.5-.3.4-.2.7-.5 1-.9.3-.4.5-.8.6-1.3.1-.5.3-1 .4-1.6h.6v3.8h2.5v.9h-2.5v7.8c0 .3.1.6.3.8.2.2.5.3.9.3.3 0 .5-.1.7-.2.2-.1.4-.3.5-.4l.6.3zM127.7 99.7c.2 0 .3 0 .5.1.1.1.3.1.4.2.1.1.2.2.2.4.1.1.1.3.1.4 0 .2 0 .3-.1.4-.1.1-.1.3-.2.4-.1.1-.2.2-.4.2-.1.1-.3.1-.5.1s-.3 0-.5-.1c-.1-.1-.3-.1-.4-.2-.1-.1-.2-.2-.2-.4-.1-.1-.1-.3-.1-.4 0-.2 0-.3.1-.4.1-.1.1-.3.2-.4.1-.1.2-.2.4-.2.2-.1.4-.1.5-.1zM136.3 101.9c-.8 0-1.5-.1-2.1-.4-.7-.3-1.2-.7-1.7-1.1-.5-.5-.9-1.1-1.2-1.7-.3-.7-.4-1.3-.4-2.1 0-.9.1-1.7.4-2.5.3-.8.6-1.4 1.1-2 .5-.6 1.1-1 1.7-1.3.7-.3 1.4-.5 2.2-.5.7 0 1.4.1 2 .4.6.3 1.1.6 1.6 1 .4.4.8.9 1 1.5.2.6.4 1.2.4 1.8H133c0 .7.1 1.4.3 2.1.2.6.5 1.2.8 1.6.3.5.8.8 1.2 1.1.5.3 1 .4 1.6.4.5 0 .9-.1 1.4-.2l1.2-.6c.4-.3.7-.5.9-.9.2-.3.4-.7.5-1l.6.3c-.2.6-.4 1.1-.8 1.6-.3.5-.8.9-1.2 1.3-.5.4-1 .7-1.5.9-.6.2-1.1.3-1.7.3zm2.2-7.8c0-.4-.1-.8-.2-1.2-.2-.4-.4-.7-.6-.9s-.6-.5-.9-.6c-.3-.1-.7-.2-1.1-.2-.3 0-.6.1-1 .2-.3.1-.6.4-.8.6l-.6.9c-.2.4-.3.8-.3 1.2h5.5zM147.2 101.1c.3 0 .6 0 .8-.1.3-.1.5-.2.7-.4.2-.2.3-.3.4-.5s.2-.4.2-.6c0-.3-.1-.6-.3-.9-.2-.3-.4-.5-.7-.7-.3-.2-.6-.4-1-.6-.4-.2-.7-.3-1.1-.5-.4-.2-.7-.4-1.1-.6-.4-.2-.7-.4-1-.7-.3-.3-.5-.6-.7-.9-.2-.3-.3-.8-.3-1.2 0-.4.1-.9.3-1.2.2-.4.5-.7.8-1 .3-.3.7-.5 1.2-.6.5-.2 1-.2 1.5-.2.4 0 .7 0 1 .1l.9.3c.3.1.6.4.9.6.3.3.6.6 1 1.1l-.8.7c-.4-.7-.9-1.2-1.4-1.5-.5-.3-1.1-.5-1.7-.5-.3 0-.6 0-.9.1-.3.1-.5.2-.7.3-.2.1-.3.3-.4.5-.1.2-.2.4-.2.6 0 .3.1.6.3.9.2.2.4.5.7.7.3.2.6.4 1 .6.4.2.8.3 1.2.5l1.2.6c.4.2.7.4 1 .7.3.3.5.6.7.9.2.3.3.8.3 1.2 0 .5-.1.9-.3 1.3-.2.4-.4.8-.8 1.1-.4.3-.8.5-1.3.7-.5.2-1.2.3-1.9.3-.3 0-.7 0-1-.1-.3-.1-.7-.2-1-.3-.3-.1-.7-.4-1-.6-.3-.3-.7-.6-1-1.1L144 99c.3.4.5.7.8 1 .2.3.5.5.8.7.3.2.5.3.8.4h.8z" class="st2"/></svg>