<?xml version="1.0" encoding="utf-8"?>
<!-- Generator: Adobe Illustrator 27.6.0, SVG Export Plug-In . SVG Version: 6.00 Build 0)  -->
<svg version="1.1" id="Layer_1" xmlns="http://www.w3.org/2000/svg" xmlns:xlink="http://www.w3.org/1999/xlink" x="0px" y="0px"
	 viewBox="0 0 200 200" style="enable-background:new 0 0 200 200;" xml:space="preserve">
<style type="text/css">
	.st0{fill:#F9CF2A;}
	.st1{fill:#008B47;}
	.st2{fill:#FFFFFF;}
</style>
<ellipse transform="matrix(0.5798 -0.8147 0.8147 0.5798 -36.971 121.6118)" class="st0" cx="99.4" cy="96.7" rx="65.1" ry="52.7"/>
<path class="st1" d="M44.7,167.4c-4.3-19.6-14-46.4-38.7-45.7c1.6-3.2,15.1,0.5,19.4,2.2c10.2,4.1,17.6,12.2,20.9,22.8
	c2.2,5.6,7.9-1.2,8.2-1.5c13.9-12.2,30.8-21,48.8-25c20.9-4.8,43-2,62.7,5.8c8.6,3.6,6.8,3.8,3.7-4.3c-5-13.6,0.2-35.8,9.8-45.5
	c-4.1,0.3-8.2,0.3-12.1-0.8c-12.6-2.5-15.4-16.6-12.4-27.4c-0.6-0.3-3.2,3.3-4.6,4.3c-8.1,7.5-20.8,16.1-33,20.2
	c-25,9.2-52.6,2.7-73.6-12.7c-3.4-3-2-0.1-1.4,2.6c0.7,4.6,1.1,9.1,0.9,13.9c-0.8,19.2-12.5,34.6-29.2,42.1
	c-1.8,0.2,0.4-1.4,1.2-1.6c4.1-2.3,7.6-5.3,11.1-8.1c10.3-11.5,14.8-28.9,12.2-44.9c-0.9-5.8-4.6-15.2-0.5-11.2
	C54.3,66.6,75.6,75.2,97.3,72c25.1-3.5,47-19.9,61.9-36.3c5-5.6,2.9-3.2,1.8,2.9c-1.7,9.2-4.4,20.5,1.4,28.7
	c12.4,8,29.3,0.9,31.7,2.3c-13.6,9-26,24.4-23.6,43.6c0.4,5.7,2.2,11.2,4.7,16.4c3.4,6.4,2.6,4.8-2.6,2.4
	C124.5,107.3,73.3,125.5,44.7,167.4z"/>
<g>
	<path class="st2" d="M52.7,101.1c0.3,0,0.6,0,0.8-0.1c0.3-0.1,0.5-0.2,0.7-0.4c0.2-0.2,0.3-0.3,0.4-0.5c0.1-0.2,0.2-0.4,0.2-0.6
		c0-0.3-0.1-0.6-0.3-0.9c-0.2-0.3-0.4-0.5-0.7-0.7c-0.3-0.2-0.6-0.4-1-0.6c-0.4-0.2-0.7-0.3-1.1-0.5c-0.4-0.2-0.7-0.4-1.1-0.6
		c-0.4-0.2-0.7-0.4-1-0.7s-0.5-0.6-0.7-0.9c-0.2-0.3-0.3-0.8-0.3-1.2c0-0.4,0.1-0.9,0.3-1.2c0.2-0.4,0.5-0.7,0.8-1
		c0.3-0.3,0.7-0.5,1.2-0.6c0.5-0.2,1-0.2,1.5-0.2c0.4,0,0.7,0,1,0.1c0.3,0.1,0.6,0.2,0.9,0.3c0.3,0.1,0.6,0.4,0.9,0.6
		c0.3,0.3,0.6,0.6,1,1.1l-0.8,0.7c-0.4-0.7-0.9-1.2-1.4-1.5c-0.5-0.3-1.1-0.5-1.7-0.5c-0.3,0-0.6,0-0.9,0.1
		c-0.3,0.1-0.5,0.2-0.7,0.3c-0.2,0.1-0.3,0.3-0.4,0.5c-0.1,0.2-0.2,0.4-0.2,0.6c0,0.3,0.1,0.6,0.3,0.9c0.2,0.2,0.4,0.5,0.7,0.7
		c0.3,0.2,0.6,0.4,1,0.6c0.4,0.2,0.8,0.3,1.2,0.5c0.4,0.2,0.8,0.4,1.2,0.6c0.4,0.2,0.7,0.4,1,0.7c0.3,0.3,0.5,0.6,0.7,0.9
		c0.2,0.3,0.3,0.8,0.3,1.2c0,0.5-0.1,0.9-0.3,1.3c-0.2,0.4-0.4,0.8-0.8,1.1c-0.4,0.3-0.8,0.5-1.3,0.7c-0.5,0.2-1.2,0.3-1.9,0.3
		c-0.3,0-0.7,0-1-0.1s-0.7-0.2-1-0.3c-0.3-0.1-0.7-0.4-1-0.6c-0.3-0.3-0.7-0.6-1-1.1l0.9-0.8c0.3,0.4,0.5,0.7,0.8,1
		c0.2,0.3,0.5,0.5,0.8,0.7c0.3,0.2,0.5,0.3,0.8,0.4C52.1,101.1,52.4,101.1,52.7,101.1z"/>
	<path class="st2" d="M60.2,90.6l3.9,8.4l3.8-8.4h1l-5,11.2h-0.8l-5.2-11.2H60.2z"/>
	<path class="st2" d="M81.2,91.2v0.9h-2.1c0.2,0.3,0.4,0.7,0.5,1c0.1,0.4,0.2,0.7,0.2,1.1c0,0.6-0.1,1.1-0.4,1.6
		c-0.3,0.5-0.6,0.9-1.1,1.2s-1,0.6-1.6,0.8c-0.6,0.2-1.3,0.3-2.1,0.3c-0.3,0-0.6,0-0.9-0.1c-0.3,0-0.5-0.1-0.8-0.2
		c-0.2,0.2-0.4,0.4-0.5,0.6c-0.1,0.2-0.2,0.5-0.2,0.7c0,0.2,0.1,0.4,0.4,0.5c0.2,0.1,0.6,0.2,1,0.2l4.1,0.2c0.7,0,1.2,0.1,1.6,0.2
		c0.4,0.1,0.8,0.3,1,0.5c0.3,0.2,0.4,0.5,0.6,0.8c0.1,0.3,0.2,0.6,0.2,1c0,0.6-0.2,1.2-0.4,1.8c-0.3,0.5-0.7,1-1.3,1.3
		c-0.6,0.4-1.3,0.7-2.1,0.9c-0.8,0.2-1.7,0.3-2.7,0.3c-1.8,0-3.2-0.2-4.1-0.6c-0.9-0.4-1.4-1-1.4-1.6c0-0.3,0.1-0.6,0.2-0.9
		s0.3-0.6,0.6-0.8c0.2-0.3,0.5-0.5,0.8-0.7c0.3-0.2,0.6-0.5,0.9-0.7c-0.4-0.1-0.8-0.3-1-0.5c-0.3-0.2-0.4-0.5-0.4-0.8
		c0-0.2,0.1-0.5,0.2-0.7c0.1-0.2,0.3-0.5,0.5-0.7c0.2-0.2,0.4-0.4,0.7-0.6c0.3-0.2,0.6-0.3,0.9-0.4c-0.8-0.3-1.3-0.8-1.8-1.3
		c-0.4-0.6-0.6-1.2-0.6-2c0-0.6,0.1-1.1,0.4-1.6c0.3-0.5,0.6-0.9,1-1.3c0.4-0.4,1-0.6,1.5-0.9c0.6-0.2,1.2-0.3,1.9-0.3
		c0.3,0,0.6,0,1,0.1c0.3,0,0.6,0.1,0.9,0.2s0.5,0.2,0.7,0.3c0.2,0.1,0.4,0.2,0.5,0.3H81.2z M72.4,101.6c-0.3,0.2-0.6,0.5-0.8,0.9
		c-0.2,0.4-0.3,0.7-0.3,1c0,0.3,0.1,0.5,0.3,0.7c0.2,0.2,0.4,0.4,0.8,0.6c0.3,0.2,0.8,0.3,1.3,0.4c0.5,0.1,1.1,0.2,1.8,0.2
		c0.7,0,1.4-0.1,2-0.2c0.6-0.1,1.1-0.3,1.5-0.5c0.4-0.2,0.7-0.4,0.9-0.6c0.2-0.2,0.3-0.5,0.3-0.7c0-0.5-0.2-0.9-0.7-1.1
		c-0.5-0.2-1.2-0.3-2-0.3c-0.5,0-1.1,0-1.6,0c-0.5,0-1-0.1-1.5-0.1c-0.5,0-0.9-0.1-1.2-0.1C72.8,101.6,72.5,101.6,72.4,101.6z
		 M75.1,97.5c0.3,0,0.6-0.1,0.9-0.2c0.3-0.1,0.5-0.3,0.8-0.6c0.2-0.2,0.4-0.5,0.5-0.9c0.1-0.3,0.2-0.7,0.2-1.1c0-0.5-0.1-1-0.2-1.5
		c-0.1-0.5-0.3-0.9-0.6-1.2c-0.3-0.3-0.6-0.6-0.9-0.8s-0.7-0.3-1.1-0.3c-0.4,0-0.7,0.1-1,0.2c-0.3,0.2-0.5,0.4-0.7,0.6
		c-0.2,0.3-0.3,0.6-0.4,0.9c-0.1,0.4-0.1,0.8-0.1,1.2c0,0.5,0.1,1,0.2,1.4c0.1,0.4,0.3,0.8,0.5,1.1c0.2,0.3,0.5,0.6,0.8,0.8
		C74.4,97.4,74.7,97.5,75.1,97.5z"/>
	<path class="st2" d="M86.9,101.1c0.3,0,0.6,0,0.8-0.1c0.3-0.1,0.5-0.2,0.7-0.4c0.2-0.2,0.3-0.3,0.4-0.5c0.1-0.2,0.2-0.4,0.2-0.6
		c0-0.3-0.1-0.6-0.3-0.9c-0.2-0.3-0.4-0.5-0.7-0.7c-0.3-0.2-0.6-0.4-1-0.6c-0.4-0.2-0.7-0.3-1.1-0.5c-0.4-0.2-0.7-0.4-1.1-0.6
		c-0.4-0.2-0.7-0.4-1-0.7c-0.3-0.3-0.5-0.6-0.7-0.9c-0.2-0.3-0.3-0.8-0.3-1.2c0-0.4,0.1-0.9,0.3-1.2c0.2-0.4,0.5-0.7,0.8-1
		c0.3-0.3,0.7-0.5,1.2-0.6c0.5-0.2,1-0.2,1.5-0.2c0.4,0,0.7,0,1,0.1c0.3,0.1,0.6,0.2,0.9,0.3c0.3,0.1,0.6,0.4,0.9,0.6
		c0.3,0.3,0.6,0.6,1,1.1l-0.8,0.7c-0.4-0.7-0.9-1.2-1.4-1.5c-0.5-0.3-1.1-0.5-1.7-0.5c-0.3,0-0.6,0-0.9,0.1
		c-0.3,0.1-0.5,0.2-0.7,0.3c-0.2,0.1-0.3,0.3-0.4,0.5c-0.1,0.2-0.2,0.4-0.2,0.6c0,0.3,0.1,0.6,0.3,0.9c0.2,0.2,0.4,0.5,0.7,0.7
		c0.3,0.2,0.6,0.4,1,0.6c0.4,0.2,0.8,0.3,1.2,0.5c0.4,0.2,0.8,0.4,1.2,0.6c0.4,0.2,0.7,0.4,1,0.7c0.3,0.3,0.5,0.6,0.7,0.9
		c0.2,0.3,0.3,0.8,0.3,1.2c0,0.5-0.1,0.9-0.3,1.3c-0.2,0.4-0.4,0.8-0.8,1.1c-0.4,0.3-0.8,0.5-1.3,0.7c-0.5,0.2-1.2,0.3-1.9,0.3
		c-0.3,0-0.7,0-1-0.1s-0.7-0.2-1-0.3c-0.3-0.1-0.7-0.4-1-0.6c-0.3-0.3-0.7-0.6-1-1.1l0.9-0.8c0.3,0.4,0.5,0.7,0.8,1
		c0.2,0.3,0.5,0.5,0.8,0.7c0.3,0.2,0.5,0.3,0.8,0.4S86.5,101.1,86.9,101.1z"/>
	<path class="st2" d="M93.3,90.6h2.2v2.3c0.2-0.3,0.5-0.6,0.7-0.9c0.3-0.3,0.6-0.6,0.9-0.8c0.3-0.2,0.7-0.4,1.1-0.6
		c0.4-0.2,0.8-0.2,1.3-0.2c0.7,0,1.3,0.1,1.8,0.4c0.5,0.3,1,0.6,1.4,1.1c0.4,0.5,0.7,1,0.9,1.7c0.2,0.6,0.3,1.3,0.3,2
		c0,0.9-0.1,1.8-0.4,2.5c-0.3,0.8-0.6,1.4-1.1,2c-0.5,0.6-1,1-1.7,1.3c-0.7,0.3-1.4,0.5-2.3,0.5c-0.3,0-0.6,0-0.9,0
		c-0.3,0-0.5-0.1-0.7-0.1c-0.2-0.1-0.5-0.1-0.7-0.3c-0.2-0.1-0.4-0.2-0.7-0.4v5.3h-2.2V90.6z M95.5,98.7c0,0.3,0.1,0.6,0.2,0.9
		c0.1,0.3,0.4,0.5,0.6,0.8c0.3,0.2,0.6,0.4,0.9,0.5c0.4,0.1,0.8,0.2,1.2,0.2c0.4,0,0.8-0.1,1.2-0.3c0.4-0.2,0.7-0.5,0.9-0.9
		c0.3-0.4,0.5-0.8,0.6-1.4c0.2-0.5,0.2-1.1,0.2-1.8c0-0.8-0.1-1.5-0.2-2.1s-0.3-1.1-0.6-1.5c-0.3-0.4-0.6-0.7-0.9-0.9
		c-0.4-0.2-0.7-0.3-1.2-0.3c-0.3,0-0.6,0-0.9,0.1c-0.3,0.1-0.6,0.2-0.8,0.4c-0.3,0.2-0.5,0.4-0.7,0.6c-0.2,0.2-0.4,0.4-0.6,0.7V98.7
		z"/>
	<path class="st2" d="M105.9,90.6h2.2v2.1c0.2-0.3,0.5-0.6,0.7-0.9c0.2-0.3,0.5-0.5,0.8-0.7s0.5-0.4,0.8-0.5
		c0.3-0.1,0.6-0.2,0.9-0.2c0.2,0,0.5,0,0.7,0.1c0.2,0.1,0.4,0.2,0.5,0.3s0.3,0.3,0.4,0.4c0.1,0.2,0.1,0.3,0.1,0.5
		c0,0.4-0.1,0.6-0.3,0.8c-0.2,0.2-0.5,0.3-0.9,0.3c-0.2,0-0.4,0-0.6-0.1c-0.2-0.1-0.3-0.1-0.4-0.2c-0.1-0.1-0.2-0.1-0.4-0.2
		c-0.1-0.1-0.3-0.1-0.5-0.1c-0.3,0-0.6,0.2-0.9,0.5c-0.3,0.3-0.6,0.7-0.9,1.2v7.7h-2.2V90.6z"/>
	<path class="st2" d="M115.6,84.9c0.2,0,0.3,0,0.5,0.1c0.2,0.1,0.3,0.1,0.4,0.2c0.1,0.1,0.2,0.2,0.3,0.4c0.1,0.1,0.1,0.3,0.1,0.4
		c0,0.1,0,0.3-0.1,0.4c-0.1,0.1-0.2,0.3-0.3,0.4c-0.1,0.1-0.2,0.2-0.4,0.2c-0.2,0.1-0.3,0.1-0.5,0.1s-0.3,0-0.5-0.1
		c-0.2-0.1-0.3-0.1-0.4-0.2c-0.1-0.1-0.2-0.2-0.3-0.4c-0.1-0.1-0.1-0.3-0.1-0.4c0-0.2,0-0.3,0.1-0.4c0.1-0.1,0.2-0.3,0.3-0.4
		c0.1-0.1,0.2-0.2,0.4-0.2C115.3,84.9,115.4,84.9,115.6,84.9z M114.5,91l1.5-0.6h0.6v11.3h-2.2V91z"/>
	<path class="st2" d="M125.3,100.2c-0.3,0.5-0.7,0.9-1.2,1.2c-0.5,0.3-1.1,0.4-1.8,0.4c-0.4,0-0.7-0.1-1-0.2
		c-0.3-0.1-0.5-0.3-0.7-0.5c-0.2-0.2-0.3-0.5-0.4-0.8c-0.1-0.3-0.1-0.7-0.1-1.1v-7.8h-1.9V91c0.6,0,1.1-0.1,1.5-0.3
		c0.4-0.2,0.7-0.5,1-0.9c0.3-0.4,0.5-0.8,0.6-1.3c0.1-0.5,0.3-1,0.4-1.6h0.6v3.8h2.5v0.9h-2.5v7.8c0,0.3,0.1,0.6,0.3,0.8
		c0.2,0.2,0.5,0.3,0.9,0.3c0.3,0,0.5-0.1,0.7-0.2c0.2-0.1,0.4-0.3,0.5-0.4L125.3,100.2z"/>
	<path class="st2" d="M127.7,99.7c0.2,0,0.3,0,0.5,0.1c0.1,0.1,0.3,0.1,0.4,0.2c0.1,0.1,0.2,0.2,0.2,0.4c0.1,0.1,0.1,0.3,0.1,0.4
		c0,0.2,0,0.3-0.1,0.4c-0.1,0.1-0.1,0.3-0.2,0.4c-0.1,0.1-0.2,0.2-0.4,0.2c-0.1,0.1-0.3,0.1-0.5,0.1s-0.3,0-0.5-0.1
		c-0.1-0.1-0.3-0.1-0.4-0.2c-0.1-0.1-0.2-0.2-0.2-0.4c-0.1-0.1-0.1-0.3-0.1-0.4c0-0.2,0-0.3,0.1-0.4c0.1-0.1,0.1-0.3,0.2-0.4
		c0.1-0.1,0.2-0.2,0.4-0.2C127.4,99.7,127.6,99.7,127.7,99.7z"/>
	<path class="st2" d="M136.3,101.9c-0.8,0-1.5-0.1-2.1-0.4c-0.7-0.3-1.2-0.7-1.7-1.1c-0.5-0.5-0.9-1.1-1.2-1.7
		c-0.3-0.7-0.4-1.3-0.4-2.1c0-0.9,0.1-1.7,0.4-2.5c0.3-0.8,0.6-1.4,1.1-2c0.5-0.6,1.1-1,1.7-1.3c0.7-0.3,1.4-0.5,2.2-0.5
		c0.7,0,1.4,0.1,2,0.4c0.6,0.3,1.1,0.6,1.6,1c0.4,0.4,0.8,0.9,1,1.5c0.2,0.6,0.4,1.2,0.4,1.8H133c0,0.7,0.1,1.4,0.3,2.1
		c0.2,0.6,0.5,1.2,0.8,1.6c0.3,0.5,0.8,0.8,1.2,1.1c0.5,0.3,1,0.4,1.6,0.4c0.5,0,0.9-0.1,1.4-0.2c0.4-0.2,0.8-0.4,1.2-0.6
		c0.4-0.3,0.7-0.5,0.9-0.9c0.2-0.3,0.4-0.7,0.5-1l0.6,0.3c-0.2,0.6-0.4,1.1-0.8,1.6c-0.3,0.5-0.8,0.9-1.2,1.3
		c-0.5,0.4-1,0.7-1.5,0.9C137.4,101.8,136.9,101.9,136.3,101.9z M138.5,94.1c0-0.4-0.1-0.8-0.2-1.2c-0.2-0.4-0.4-0.7-0.6-0.9
		s-0.6-0.5-0.9-0.6c-0.3-0.1-0.7-0.2-1.1-0.2c-0.3,0-0.6,0.1-1,0.2c-0.3,0.1-0.6,0.4-0.8,0.6c-0.2,0.3-0.4,0.6-0.6,0.9
		c-0.2,0.4-0.3,0.8-0.3,1.2H138.5z"/>
	<path class="st2" d="M147.2,101.1c0.3,0,0.6,0,0.8-0.1c0.3-0.1,0.5-0.2,0.7-0.4c0.2-0.2,0.3-0.3,0.4-0.5s0.2-0.4,0.2-0.6
		c0-0.3-0.1-0.6-0.3-0.9c-0.2-0.3-0.4-0.5-0.7-0.7c-0.3-0.2-0.6-0.4-1-0.6c-0.4-0.2-0.7-0.3-1.1-0.5c-0.4-0.2-0.7-0.4-1.1-0.6
		c-0.4-0.2-0.7-0.4-1-0.7c-0.3-0.3-0.5-0.6-0.7-0.9c-0.2-0.3-0.3-0.8-0.3-1.2c0-0.4,0.1-0.9,0.3-1.2c0.2-0.4,0.5-0.7,0.8-1
		c0.3-0.3,0.7-0.5,1.2-0.6c0.5-0.2,1-0.2,1.5-0.2c0.4,0,0.7,0,1,0.1c0.3,0.1,0.6,0.2,0.9,0.3c0.3,0.1,0.6,0.4,0.9,0.6
		c0.3,0.3,0.6,0.6,1,1.1l-0.8,0.7c-0.4-0.7-0.9-1.2-1.4-1.5c-0.5-0.3-1.1-0.5-1.7-0.5c-0.3,0-0.6,0-0.9,0.1
		c-0.3,0.1-0.5,0.2-0.7,0.3c-0.2,0.1-0.3,0.3-0.4,0.5c-0.1,0.2-0.2,0.4-0.2,0.6c0,0.3,0.1,0.6,0.3,0.9c0.2,0.2,0.4,0.5,0.7,0.7
		c0.3,0.2,0.6,0.4,1,0.6c0.4,0.2,0.8,0.3,1.2,0.5c0.4,0.2,0.8,0.4,1.2,0.6c0.4,0.2,0.7,0.4,1,0.7c0.3,0.3,0.5,0.6,0.7,0.9
		c0.2,0.3,0.3,0.8,0.3,1.2c0,0.5-0.1,0.9-0.3,1.3c-0.2,0.4-0.4,0.8-0.8,1.1c-0.4,0.3-0.8,0.5-1.3,0.7c-0.5,0.2-1.2,0.3-1.9,0.3
		c-0.3,0-0.7,0-1-0.1c-0.3-0.1-0.7-0.2-1-0.3c-0.3-0.1-0.7-0.4-1-0.6c-0.3-0.3-0.7-0.6-1-1.1L144,99c0.3,0.4,0.5,0.7,0.8,1
		c0.2,0.3,0.5,0.5,0.8,0.7c0.3,0.2,0.5,0.3,0.8,0.4C146.5,101.1,146.8,101.1,147.2,101.1z"/>
</g>
</svg>
